<?xml version="1.0" encoding="utf-8"?>
<!-- Generator: Adobe Illustrator 19.0.0, SVG Export Plug-In . SVG Version: 6.00 Build 0)  -->
<svg version="1.1" id="Layer_1" xmlns="http://www.w3.org/2000/svg" xmlns:xlink="http://www.w3.org/1999/xlink" x="0px" y="0px"
	 viewBox="0 0 269.8 269.8" style="enable-background:new 0 0 269.8 269.8;" xml:space="preserve">
<style type="text/css">
	.st0{fill:#A3FF56;}
	.st1{opacity:0.7;}
	.st2{opacity:0.85;}
</style>
<g id="Layer_3">
</g>
<g id="Layer_4">
</g>
<circle class="st0" cx="124" cy="133.5" r="0.4"/>
<g>
	
		<rect x="123.8" y="133.6" transform="matrix(0.4353 0.9003 -0.9003 0.4353 190.3273 -36.1118)" class="st1" width="0.3" height="0.1"/>
	<polygon class="st2" points="124.1,133.8 123.9,133.4 123.9,133.8 123.9,133.8 123.9,133.2 123.9,133.2 124.2,133.8 	"/>
	<path d="M124,133.8c-0.2,0-0.3-0.1-0.3-0.3s0.1-0.3,0.3-0.3c0.2,0,0.3,0.1,0.3,0.3S124.2,133.8,124,133.8z M124,133.2
		c-0.1,0-0.3,0.1-0.3,0.3c0,0.1,0.1,0.3,0.3,0.3c0.1,0,0.3-0.1,0.3-0.3C124.3,133.4,124.2,133.2,124,133.2z"/>
	<path d="M124.4,133.6h-0.7v-0.1L124.4,133.6C124.4,133.5,124.4,133.5,124.4,133.6z"/>
</g>
</svg>
